# xmcd
#
# Track frame offsets:
#	150
#	19880
#	39937
#	58693
#	74957
#	92499
#	106309
#	124714
#	139531
#	155867
#	173265
#	196759
#	213694
#
# Disc length: 2991 seconds
#
# Revision: 3
# Processed by: cddbd v1.5.2PL0 Copyright (c) Steve Scherf et al.
# Submitted via: EasyCDDAExtractor 15.3.0.1
#
DISCID=b40bad0d
DTITLE=Toni Braxton and Babyface - Love, Marriage‎ and Divorce (Target Deluxe Edit
DTITLE=ion)
DYEAR=2014
DGENRE=R&B
TTITLE0=Toni Braxton and Babyface - Roller Coaster
TTITLE1=Toni Braxton and Babyface - Sweat
TTITLE2=Toni Braxton and Babyface - Hurt You
TTITLE3=Toni Braxton and Babyface - Where Did We Go Wrong
TTITLE4=Babyface - I Hope That You're Okay
TTITLE5=Toni Braxton - I Wish
TTITLE6=Toni Braxton and Babyface - Take It Back
TTITLE7=Toni Braxton and Babyface - Reunited
TTITLE8=Toni Braxton - I'd Rather Be Broke
TTITLE9=Toni Braxton and Babyface - Heart Attack
TTITLE10=Toni Braxton and Babyface - The D Word
TTITLE11=Toni Braxton and Babyface - Let's Do It
TTITLE12=Toni Braxton and Babyface - One
EXTD=
EXTT0=
EXTT1=
EXTT2=
EXTT3=
EXTT4=
EXTT5=
EXTT6=
EXTT7=
EXTT8=
EXTT9=
EXTT10=
EXTT11=
EXTT12=
PLAYORDER=
